<svg xmlns="http://www.w3.org/2000/svg" viewBox="0 0 226.54 226.54"><defs><style>.cls-1{fill:#236092;}</style></defs><title>Asset 5</title><g id="Layer_2" data-name="Layer 2"><g id="Layer_1-2" data-name="Layer 1"><path class="cls-1" d="M193.36,33.19h0A113.3,113.3,0,0,0,33.12,193.42h0a113.42,113.42,0,0,0,159.17,1c.35-.34.71-.67,1.05-1a113.31,113.31,0,0,0,0-160.23ZM108.78,144.86H95.55v32.25H75V144.86H24.43V125.34L55,45.59H76l-31.23,80H75V94.38H95.55V125.6h13.23Zm78.09,0v32.25H166.31V144.86H115.77V125.34L146.3,45.59h21l-31.25,80h30.24V94.38h20.56V125.6h13.24v19.26Z"/></g></g></svg>